<svg width="218" height="218" viewBox="0 0 218 218" fill="none" xmlns="http://www.w3.org/2000/svg">
<g clip-path="url(#clip0_2_5)">
<path d="M110.098 31.099C131.183 31.099 151.404 39.4749 166.313 54.384C181.222 69.2932 189.598 89.5143 189.598 110.599C189.598 154.506 104.075 148.984 104.075 148.984C104.075 148.984 30.598 154.506 30.598 110.599C30.598 89.5143 38.9739 69.2932 53.883 54.384C68.7922 39.4749 89.0133 31.099 110.098 31.099V31.099Z" fill="white"/>
<mask id="mask0_2_5" style="mask-type:alpha" maskUnits="userSpaceOnUse" x="31" y="31" width="159" height="159">
<circle cx="110.5" cy="110.5" r="79.5" fill="#C4C4C4"/>
</mask>
<g mask="url(#mask0_2_5)">
<path d="M135.195 164.736C155.198 172.818 158.79 159.347 173.725 147.732C180.296 142.621 203.178 146.949 206.721 138.178C212.02 125.064 198.841 113.951 194.365 101.454C189.165 86.9323 190.973 71.6393 175.358 65.3301C146.493 53.6679 113.736 67.3741 102.194 95.9425C96.5495 109.912 89.2945 119.991 95.074 132.08C101.019 144.514 120.445 158.777 135.195 164.736Z" fill="#FCF6F6"/>
<path d="M152.67 49.2934C138.635 49.7848 140.066 58.7463 134.262 69.61C131.709 74.3893 116.956 77.8757 117.171 84.029C117.493 93.2293 128.272 96.3481 134.243 102.594C141.181 109.851 144.155 119.423 155.112 119.04C164.789 118.751 173.956 114.629 180.594 107.582C187.233 100.534 190.8 91.1385 190.511 81.461C190.168 71.659 191.813 63.7445 185.175 58.0873C178.35 52.2676 163.018 48.9311 152.67 49.2934Z" fill="#EBDBE0"/>
</g>
<path d="M101.444 113.328C102.497 113.599 103.566 113.808 104.644 113.953C104.999 113.974 108.413 114.013 108.413 114.013H108.813C108.813 114.013 112.228 113.974 112.583 113.953C113.675 113.908 114.754 113.697 115.783 113.328C116.87 112.901 118.461 112.108 118.461 110.301V70.4199C118.461 69.4207 118.23 68.435 117.787 67.5394C117.344 66.6439 116.7 65.8628 115.905 65.257L113.739 63.511C113.279 63.1399 112.908 62.6704 112.652 62.1371C112.397 61.6038 112.265 61.0201 112.265 60.429V44.239C112.265 44.0905 112.206 43.948 112.101 43.843C111.996 43.738 111.853 43.679 111.705 43.679H105.523C105.375 43.679 105.232 43.738 105.127 43.843C105.022 43.948 104.963 44.0905 104.963 44.239V60.429C104.963 61.0201 104.831 61.6039 104.576 62.1372C104.32 62.6705 103.949 63.14 103.489 63.511L101.323 65.257C100.528 65.8628 99.8843 66.6439 99.441 67.5394C98.9977 68.4349 98.767 69.4207 98.7669 70.4199V110.177C98.7669 110.177 98.2459 112.704 101.444 113.328Z" stroke="#915868" stroke-width="2" stroke-linecap="round" stroke-linejoin="round"/>
<path d="M104.962 47.9189H112.264" stroke="#915868" stroke-width="2" stroke-linecap="round" stroke-linejoin="round"/>
<path d="M104.962 59.205H112.264" stroke="#915868" stroke-width="2" stroke-linecap="round" stroke-linejoin="round"/>
<path d="M98.859 73.456H118.389" stroke="#915868" stroke-width="2" stroke-linecap="round" stroke-linejoin="round"/>
<path d="M118.388 102.799H98.859" stroke="#915868" stroke-width="2" stroke-linecap="round" stroke-linejoin="round"/>
<path d="M90.098 106.099C100.591 106.099 109.098 97.5924 109.098 87.099C109.098 76.6056 100.591 68.099 90.098 68.099C79.6046 68.099 71.098 76.6056 71.098 87.099C71.098 97.5924 79.6046 106.099 90.098 106.099Z" fill="#632D3E"/>
<path d="M90.098 104.599C99.763 104.599 107.598 96.764 107.598 87.099C107.598 77.434 99.763 69.599 90.098 69.599C80.433 69.599 72.598 77.434 72.598 87.099C72.598 96.764 80.433 104.599 90.098 104.599Z" stroke="#632D3E" stroke-width="3"/>
<path d="M89.871 77.976H89.87C88.5136 77.976 87.414 79.0756 87.414 80.432V93.767C87.414 95.1234 88.5136 96.223 89.87 96.223H89.871C91.2274 96.223 92.327 95.1234 92.327 93.767V80.432C92.327 79.0756 91.2274 77.976 89.871 77.976Z" fill="#FCF6F6"/>
<path d="M96.632 89.224C97.9939 89.224 99.098 88.1199 99.098 86.758C99.098 85.3961 97.9939 84.292 96.632 84.292H83.564C82.2021 84.292 81.098 85.3961 81.098 86.758C81.098 88.1199 82.2021 89.224 83.564 89.224H96.632Z" fill="#FCF6F6"/>
</g>
<defs>
<clipPath id="clip0_2_5">
<rect width="217.198" height="217.198" fill="white"/>
</clipPath>
</defs>
</svg>
